<svg xmlns="http://www.w3.org/2000/svg" xmlns:xlink="http://www.w3.org/1999/xlink" width="400" zoomAndPan="magnify" viewBox="0 0 300 225" height="300" preserveAspectRatio="xMidYMid meet" version="1.0"><defs><g/><clipPath id="1c09ff0db7"><path d="M 68.636719 17.148438 L 231.386719 17.148438 L 231.386719 131.894531 L 68.636719 131.894531 Z M 68.636719 17.148438 " clip-rule="nonzero"/></clipPath></defs><rect x="-30" width="360" fill="#ffffff" y="-22.5" height="270" fill-opacity="1"/><rect x="-30" width="360" fill="#ffffff" y="-22.5" height="270" fill-opacity="1"/><g clip-path="url(#1c09ff0db7)"><path fill="#4ce1e6" d="M 204.742188 131.84375 L 95.105469 131.84375 C 80.5625 131.746094 68.691406 120.476562 68.636719 106.71875 L 68.636719 42.417969 C 68.636719 37.730469 70.007812 33.152344 72.59375 29.1875 L 72.671875 29.066406 C 72.769531 28.921875 72.851562 28.804688 72.929688 28.6875 C 77.863281 21.496094 86.214844 17.203125 95.269531 17.203125 L 205.007812 17.203125 L 205.054688 17.207031 C 219.5625 17.375 231.363281 28.664062 231.375 42.40625 L 231.375 106.625 C 231.375 111.28125 230.023438 115.832031 227.46875 119.785156 L 227.316406 120.023438 C 227.246094 120.128906 227.164062 120.25 227.078125 120.367188 C 222.160156 127.554688 213.8125 131.84375 204.742188 131.84375 Z M 77.542969 31.933594 C 77.492188 32.007812 77.445312 32.074219 77.394531 32.152344 L 77.328125 32.253906 C 75.335938 35.3125 74.285156 38.828125 74.285156 42.417969 L 74.285156 106.707031 C 74.324219 117.375 83.679688 126.125 95.136719 126.203125 L 204.742188 126.203125 C 211.953125 126.203125 218.566406 122.824219 222.429688 117.167969 L 222.464844 117.121094 C 222.511719 117.050781 222.5625 116.980469 222.601562 116.921875 L 222.707031 116.757812 C 224.683594 113.710938 225.730469 110.207031 225.730469 106.625 L 225.730469 42.40625 C 225.722656 31.722656 216.390625 22.949219 204.933594 22.84375 L 95.269531 22.84375 C 88.0625 22.84375 81.449219 26.226562 77.570312 31.898438 C 77.566406 31.902344 77.5625 31.910156 77.558594 31.914062 Z M 102.597656 95.074219 L 107.664062 103.257812 L 123.574219 82.308594 C 124.464844 81.132812 125.878906 80.390625 127.441406 80.285156 C 129 80.179688 130.515625 80.707031 131.597656 81.753906 L 140.691406 90.535156 L 150.480469 83.59375 L 158.707031 73.019531 C 159.503906 71.996094 160.710938 71.296875 162.0625 71.089844 L 181.996094 68.015625 L 188.425781 51.101562 C 189.148438 49.1875 191.121094 47.910156 193.324219 47.910156 L 209.765625 47.910156 L 221.164062 37.4375 C 218.886719 31.105469 212.410156 26.53125 204.746094 26.53125 L 95.28125 26.53125 C 85.71875 26.53125 77.972656 33.640625 77.972656 42.410156 L 77.972656 92.65625 L 98.089844 92.65625 C 99.949219 92.660156 101.675781 93.582031 102.597656 95.074219 Z M 215.582031 56.042969 C 214.609375 56.941406 213.292969 57.441406 211.90625 57.441406 L 197.003906 57.441406 L 190.785156 73.820312 C 190.15625 75.460938 188.601562 76.660156 186.738281 76.945312 L 165.90625 80.171875 L 158.472656 89.710938 C 158.183594 90.089844 157.835938 90.433594 157.429688 90.710938 L 143.332031 100.714844 C 141.226562 102.207031 138.230469 102 136.394531 100.226562 L 128.457031 92.558594 L 111.480469 114.90625 C 110.496094 116.191406 108.914062 116.945312 107.214844 116.945312 C 107.136719 116.945312 107.054688 116.945312 106.980469 116.941406 C 105.199219 116.863281 103.585938 115.957031 102.707031 114.539062 L 95.070312 102.199219 L 77.976562 102.199219 L 77.976562 106.632812 C 77.976562 115.410156 85.71875 122.519531 95.285156 122.519531 L 204.746094 122.519531 C 214.304688 122.519531 222.042969 115.410156 222.042969 106.632812 L 222.042969 50.109375 Z M 215.582031 56.042969 " fill-opacity="1" fill-rule="nonzero"/></g><g fill="#000000" fill-opacity="1"><g transform="translate(46.346942, 178.763764)"><g><path d="M 9.984375 0.328125 C 14.566406 0.328125 18.453125 -2.375 18.453125 -6.957031 C 18.453125 -16.039062 7.160156 -13.789062 7.160156 -18.042969 C 7.160156 -19.433594 8.222656 -20.089844 9.535156 -20.089844 C 10.925781 -20.089844 12.316406 -19.3125 13.542969 -17.960938 L 17.144531 -21.398438 C 15.34375 -23.484375 12.601562 -24.878906 9.574219 -24.878906 C 5.6875 -24.878906 1.71875 -22.546875 1.71875 -17.636719 C 1.71875 -9.289062 13.050781 -11.292969 13.050781 -6.996094 C 13.050781 -5.648438 11.90625 -4.746094 10.023438 -4.746094 C 7.773438 -4.746094 6.015625 -6.015625 5.113281 -7.9375 L 0.65625 -5.15625 C 2.25 -2.085938 5.6875 0.328125 9.984375 0.328125 Z M 9.984375 0.328125 "/></g></g></g><g fill="#000000" fill-opacity="1"><g transform="translate(65.084593, 178.763764)"><g><path d="M 12.273438 -12.316406 L 12.273438 -16.367188 L 8.386719 -16.367188 L 8.386719 -22.667969 L 3.191406 -22.667969 L 3.191406 -16.367188 L 0.449219 -16.367188 L 0.449219 -12.316406 L 3.191406 -12.316406 L 3.191406 -5.851562 C 3.191406 -2.375 6.136719 0.328125 9.617188 0.328125 C 10.71875 0.328125 11.824219 0.0820312 12.234375 -0.203125 L 12.234375 -4.253906 L 10.269531 -4.253906 C 9.164062 -4.253906 8.386719 -5.113281 8.386719 -6.464844 L 8.386719 -12.316406 Z M 12.273438 -12.316406 "/></g></g></g><g fill="#000000" fill-opacity="1"><g transform="translate(77.521749, 178.763764)"><g><path d="M 10.394531 0.328125 C 15.875 0.328125 19.476562 -3.273438 19.476562 -8.183594 C 19.476562 -13.09375 15.875 -16.695312 10.394531 -16.695312 C 4.910156 -16.695312 1.269531 -13.09375 1.269531 -8.183594 C 1.269531 -3.273438 4.910156 0.328125 10.394531 0.328125 Z M 10.394531 -4.296875 C 8.140625 -4.335938 6.503906 -5.972656 6.503906 -8.183594 C 6.503906 -10.394531 8.140625 -12.03125 10.394531 -12.070312 C 12.601562 -12.03125 14.28125 -10.394531 14.28125 -8.183594 C 14.28125 -5.972656 12.601562 -4.335938 10.394531 -4.296875 Z M 10.394531 -4.296875 "/></g></g></g><g fill="#000000" fill-opacity="1"><g transform="translate(97.650425, 178.763764)"><g><path d="M 10.394531 0.328125 C 15.304688 0.328125 18.65625 -2.535156 19.355469 -6.628906 L 13.953125 -6.628906 C 13.421875 -5.238281 12.070312 -4.335938 10.394531 -4.296875 C 8.140625 -4.335938 6.503906 -5.972656 6.503906 -8.183594 C 6.503906 -10.394531 8.140625 -12.03125 10.394531 -12.070312 C 12.070312 -12.03125 13.421875 -11.128906 13.953125 -9.738281 L 19.355469 -9.738281 C 18.65625 -13.828125 15.304688 -16.695312 10.394531 -16.695312 C 4.910156 -16.695312 1.269531 -13.09375 1.269531 -8.183594 C 1.269531 -3.273438 4.910156 0.328125 10.394531 0.328125 Z M 10.394531 0.328125 "/></g></g></g><g fill="#000000" fill-opacity="1"><g transform="translate(117.288148, 178.763764)"><g><path d="M 20.417969 0 L 12.644531 -8.960938 L 19.804688 -16.367188 L 13.542969 -16.367188 L 7.855469 -10.476562 L 7.855469 -28.027344 L 2.660156 -28.027344 L 2.660156 0 L 7.855469 0 L 7.855469 -7.527344 L 13.625 0 Z M 20.417969 0 "/></g></g></g><g fill="#000000" fill-opacity="1"><g transform="translate(136.3122, 178.763764)"><g><path d="M 23.8125 -24.550781 L 16 -7.570312 L 8.265625 -24.550781 L 2.414062 -24.550781 L 2.414062 0 L 7.816406 0 L 7.816406 -14.648438 L 14.445312 0 L 17.554688 0 L 24.222656 -14.605469 L 24.222656 0 L 29.625 0 L 29.625 -24.550781 Z M 23.8125 -24.550781 "/></g></g></g><g fill="#000000" fill-opacity="1"><g transform="translate(167.691775, 178.763764)"><g><path d="M 20.664062 -4.253906 C 19.96875 -4.253906 19.230469 -4.5 19.230469 -5.851562 L 19.230469 -16.367188 L 14.035156 -16.367188 L 14.035156 -14.933594 C 12.808594 -16.039062 11.253906 -16.695312 9.371094 -16.695312 C 4.828125 -16.695312 1.269531 -12.929688 1.269531 -8.183594 C 1.269531 -3.4375 4.828125 0.328125 9.371094 0.328125 C 11.742188 0.328125 13.667969 -0.738281 14.976562 -2.453125 C 16 -0.777344 17.796875 0.328125 20.007812 0.328125 C 20.539062 0.328125 21.03125 0.164062 21.398438 0 L 21.398438 -4.253906 Z M 10.394531 -4.296875 C 8.222656 -4.296875 6.503906 -6.015625 6.503906 -8.183594 C 6.503906 -10.351562 8.222656 -12.070312 10.394531 -12.070312 C 12.519531 -12.070312 14.28125 -10.351562 14.28125 -8.183594 C 14.28125 -6.015625 12.519531 -4.296875 10.394531 -4.296875 Z M 10.394531 -4.296875 "/></g></g></g><g fill="#000000" fill-opacity="1"><g transform="translate(189.047819, 178.763764)"><g><path d="M 12.234375 -16.695312 C 10.3125 -16.695312 8.714844 -15.710938 7.652344 -14.117188 L 7.652344 -16.367188 L 2.414062 -16.367188 L 2.414062 0 L 7.652344 0 L 7.652344 -7.816406 C 7.652344 -10.515625 9.492188 -12.070312 12.070312 -12.070312 C 12.683594 -12.070312 13.214844 -11.988281 13.585938 -11.90625 L 13.585938 -16.53125 C 13.214844 -16.652344 12.726562 -16.695312 12.234375 -16.695312 Z M 12.234375 -16.695312 "/></g></g></g><g fill="#000000" fill-opacity="1"><g transform="translate(201.894094, 178.763764)"><g><path d="M 20.417969 0 L 12.644531 -8.960938 L 19.804688 -16.367188 L 13.542969 -16.367188 L 7.855469 -10.476562 L 7.855469 -28.027344 L 2.660156 -28.027344 L 2.660156 0 L 7.855469 0 L 7.855469 -7.527344 L 13.625 0 Z M 20.417969 0 "/></g></g></g><g fill="#000000" fill-opacity="1"><g transform="translate(220.918146, 178.763764)"><g><path d="M 19.066406 -8.222656 C 19.066406 -13.339844 15.546875 -16.734375 10.269531 -16.734375 C 4.992188 -16.734375 1.269531 -13.296875 1.269531 -8.183594 C 1.269531 -3.070312 4.949219 0.328125 10.433594 0.328125 C 14.976562 0.328125 18.003906 -2.085938 18.820312 -5.648438 L 13.789062 -5.648438 C 13.339844 -4.335938 12.152344 -3.558594 10.351562 -3.558594 C 7.980469 -3.558594 6.75 -4.992188 6.546875 -7.324219 L 19.066406 -7.324219 Z M 10.351562 -12.726562 C 12.113281 -12.726562 13.132812 -11.90625 13.667969 -10.476562 L 6.875 -10.476562 C 7.40625 -11.867188 8.511719 -12.726562 10.351562 -12.726562 Z M 10.351562 -12.726562 "/></g></g></g><g fill="#000000" fill-opacity="1"><g transform="translate(240.555872, 178.763764)"><g><path d="M 12.273438 -12.316406 L 12.273438 -16.367188 L 8.386719 -16.367188 L 8.386719 -22.667969 L 3.191406 -22.667969 L 3.191406 -16.367188 L 0.449219 -16.367188 L 0.449219 -12.316406 L 3.191406 -12.316406 L 3.191406 -5.851562 C 3.191406 -2.375 6.136719 0.328125 9.617188 0.328125 C 10.71875 0.328125 11.824219 0.0820312 12.234375 -0.203125 L 12.234375 -4.253906 L 10.269531 -4.253906 C 9.164062 -4.253906 8.386719 -5.113281 8.386719 -6.464844 L 8.386719 -12.316406 Z M 12.273438 -12.316406 "/></g></g></g><g fill="#000000" fill-opacity="1"><g transform="translate(138.234071, 200.233414)"><g><path d="M 5.167969 -2.765625 L 6.097656 0 L 7.152344 0 L 4.453125 -7.820312 L 3.140625 -7.820312 L 0.328125 0 L 1.371094 0 L 2.289062 -2.765625 Z M 2.5625 -3.558594 L 3.773438 -7.050781 L 4.90625 -3.558594 Z M 2.5625 -3.558594 "/></g></g></g><g fill="#000000" fill-opacity="1"><g transform="translate(146.835835, 200.233414)"><g><path d="M 4.578125 -7.773438 C 4.226562 -7.820312 3.957031 -7.820312 3.558594 -7.820312 L 1.132812 -7.820312 L 1.132812 0 L 2.109375 0 L 2.109375 -3.195312 L 3.558594 -3.195312 C 3.957031 -3.195312 4.226562 -3.195312 4.578125 -3.242188 C 5.710938 -3.386719 6.605469 -4.183594 6.605469 -5.507812 C 6.605469 -6.832031 5.824219 -7.617188 4.578125 -7.773438 Z M 4.523438 -4.070312 C 4.304688 -4.023438 4 -4.011719 3.648438 -4.011719 L 2.109375 -4.011719 L 2.109375 -7.003906 L 3.648438 -7.003906 C 4 -7.003906 4.304688 -6.992188 4.523438 -6.945312 C 5.078125 -6.824219 5.566406 -6.414062 5.566406 -5.507812 C 5.566406 -4.601562 5.078125 -4.191406 4.523438 -4.070312 Z M 4.523438 -4.070312 "/></g></g></g><g fill="#000000" fill-opacity="1"><g transform="translate(154.972945, 200.233414)"><g><path d="M 4.578125 -7.773438 C 4.226562 -7.820312 3.957031 -7.820312 3.558594 -7.820312 L 1.132812 -7.820312 L 1.132812 0 L 2.109375 0 L 2.109375 -3.195312 L 3.558594 -3.195312 C 3.957031 -3.195312 4.226562 -3.195312 4.578125 -3.242188 C 5.710938 -3.386719 6.605469 -4.183594 6.605469 -5.507812 C 6.605469 -6.832031 5.824219 -7.617188 4.578125 -7.773438 Z M 4.523438 -4.070312 C 4.304688 -4.023438 4 -4.011719 3.648438 -4.011719 L 2.109375 -4.011719 L 2.109375 -7.003906 L 3.648438 -7.003906 C 4 -7.003906 4.304688 -6.992188 4.523438 -6.945312 C 5.078125 -6.824219 5.566406 -6.414062 5.566406 -5.507812 C 5.566406 -4.601562 5.078125 -4.191406 4.523438 -4.070312 Z M 4.523438 -4.070312 "/></g></g></g></svg>